<svg width="99" height="143" viewBox="0 0 99 143" fill="none" xmlns="http://www.w3.org/2000/svg">
<g clip-path="url(#clip0_1164_1054)">
<path d="M99.0001 50.9494C99.2304 38.7604 95.0237 26.9052 87.1677 17.6034C79.3117 8.30165 68.3451 2.19136 56.3212 0.4166C43.9581 -1.30922 31.4009 1.70016 21.1511 8.84607C10.9012 15.992 3.71117 26.7497 1.01398 38.9751C-1.05197 49.2191 -0.287052 59.8348 3.22618 69.6742C8.50798 85.0275 15.9082 99.5626 25.2109 112.856C31.5394 122.493 38.418 131.756 45.8127 140.596V140.874C48.3937 143.925 49.9611 143.925 52.4499 140.874C54.9387 137.822 58.0269 134.123 60.7001 130.656C71.1218 117.349 80.2284 103.057 87.8924 87.9824C92.7488 78.6597 96.1679 68.6517 98.0324 58.3004C98.528 55.8761 98.8513 53.4197 99.0001 50.9494ZM92.8704 49.701C92.8704 51.4117 92.87 53.1685 92.5013 54.8792C91.0892 64.5443 88.1163 73.9138 83.6986 82.6192C74.6853 100.841 63.5287 117.915 50.4678 133.476C49.5921 134.539 49.2698 134.262 48.5324 133.476C44.707 128.853 41.0198 124.229 37.5631 119.19C26.489 104.483 17.4499 88.3393 10.6926 71.1997C7.0858 62.4287 5.69263 52.9002 6.63675 43.4596C7.42542 37.7527 9.33758 32.26 12.2618 27.3011C15.186 22.3421 19.0643 18.0162 23.6705 14.5745C28.2766 11.1327 33.5191 8.64364 39.0929 7.25285C44.6666 5.86206 50.4599 5.59698 56.1367 6.47289C66.411 8.05903 75.7747 13.2981 82.5183 21.2341C89.2618 29.17 92.936 39.2735 92.8704 49.701Z" fill="white"/>
<path d="M49.4998 74.6207H69.5025C70.8852 74.6207 71.2539 74.2508 71.2539 72.9101C71.2539 66.9922 71.2539 61.1207 71.2539 55.2029C70.9869 52.2186 71.8236 49.2398 73.6045 46.8343C74.2958 45.9559 74.2038 45.4014 73.1898 44.8003C65.6312 40.177 58.1185 35.5534 50.5598 31.2074C50.2949 31.0049 49.9713 30.8953 49.6382 30.8953C49.3052 30.8953 48.981 31.0049 48.7161 31.2074L26.2245 44.7541C25.1644 45.4013 24.8418 45.8636 25.6714 46.9732C27.3946 49.2817 28.2145 52.1437 27.9759 55.0178C27.9759 60.9356 27.9759 66.8071 27.9759 72.725C27.9759 74.3894 28.4832 74.7132 30.0041 74.667L49.4998 74.6207ZM65.0319 57.6071C65.0319 60.751 65.0319 63.8486 65.0319 66.8538C65.0319 67.9171 64.7091 68.2867 63.649 68.2867C61.575 68.2867 59.5011 68.2867 57.4732 68.2867C56.1366 68.2867 55.6757 67.9631 55.6757 66.5761C55.6757 62.4613 55.6757 58.3464 55.6757 54.2779C55.6757 53.0296 55.3071 52.6598 54.1088 52.7061H44.8909C43.6465 52.7061 43.3241 53.1221 43.3702 54.3241C43.3702 58.4389 43.3702 62.6002 43.3702 66.7612C43.3702 67.8708 43.0472 68.333 41.895 68.2867C39.7749 68.2867 37.6547 68.2867 35.4885 68.2867C34.4284 68.2867 34.0139 68.0096 34.0139 66.8538C34.0139 60.6893 34.0139 54.5249 34.0139 48.3604C33.9794 48.0217 34.0493 47.6805 34.2142 47.3829C34.379 47.0853 34.6305 46.8451 34.9354 46.6955L48.3937 38.6047C48.7241 38.3497 49.1292 38.2119 49.546 38.2119C49.9628 38.2119 50.3679 38.3497 50.6982 38.6047C55.3071 41.2862 59.5474 43.9682 64.0181 46.6035C64.3705 46.7899 64.6569 47.0807 64.8384 47.4365C65.0199 47.7923 65.0874 48.1955 65.0319 48.5912C64.9859 51.5039 65.0319 54.5557 65.0319 57.6071Z" fill="white"/>
</g>
<defs>
<clipPath id="clip0_1164_1054">
<rect width="99" height="143" fill="white"/>
</clipPath>
</defs>
</svg>
