<svg width="143" height="143" viewBox="0 0 143 143" fill="none" xmlns="http://www.w3.org/2000/svg">
<g clip-path="url(#clip0_1164_298)">
<path d="M72.4028 41.8643V63.8983C72.4028 66.0568 73.57 67.4504 75.3655 67.4954C77.161 67.5404 78.4624 66.1017 78.4624 63.8983C78.4624 57.3331 78.4624 50.7229 78.4624 44.1577V42.1344C80.6396 43.429 83.001 44.3837 85.4651 44.9668C88.3862 45.6173 91.423 45.5262 94.3 44.7016C97.177 43.877 99.8032 42.3454 101.939 40.2455C102.747 39.4811 103.061 39.2563 103.914 40.2455C105.177 41.789 106.766 43.0321 108.567 43.8859C110.367 44.7398 112.335 45.183 114.327 45.183C116.319 45.183 118.287 44.7398 120.088 43.8859C121.889 43.0321 123.478 41.789 124.741 40.2455C125.459 39.4811 125.729 39.4361 126.492 40.2455C128.316 42.5118 130.823 44.1263 133.638 44.8477C136.453 45.569 139.426 45.3584 142.113 44.2477C144.885 42.9714 147.206 40.8827 148.768 38.2574C150.331 35.6321 151.062 32.5936 150.865 29.5433C150.777 27.5073 150.06 25.5491 148.814 23.9383C147.568 22.3275 145.854 21.1435 143.908 20.5499L77.251 0.0445342C76.1271 -0.316765 74.9184 -0.316765 73.7946 0.0445342C51.8298 6.72966 29.8499 13.3851 7.85522 20.0103C5.42205 20.6675 3.29931 22.1655 1.86188 24.2391C0.424438 26.3127 -0.235156 28.8285 -1.48714e-05 31.3421C0.203236 34.5955 1.48349 37.6882 3.63774 40.1314C5.79199 42.5745 8.69744 44.2287 11.8952 44.8323C14.2291 45.2633 16.6365 45.042 18.8534 44.1933C21.0704 43.3446 23.0115 41.901 24.4637 40.0205C25.1819 39.1661 25.4958 39.0762 26.3037 40.0205C27.5675 41.5402 29.1496 42.763 30.9376 43.6022C32.7256 44.4413 34.6759 44.8762 36.6504 44.8762C38.6249 44.8762 40.5752 44.4413 42.3632 43.6022C44.1512 42.763 45.7328 41.5402 46.9966 40.0205C47.3108 39.6158 47.5804 38.5367 48.4333 39.5709C50.1442 41.486 52.2748 42.978 54.6578 43.9299C57.0409 44.8817 59.6115 45.2673 62.1684 45.0568C65.8192 45.0253 69.3796 43.9149 72.4028 41.8643ZM144.851 30.7125C144.887 32.6583 144.263 34.5588 143.081 36.1029C141.898 37.6469 140.228 38.743 138.342 39.2114C136.421 39.5968 134.425 39.2888 132.708 38.3424C130.991 37.3961 129.664 35.8723 128.96 34.04C128.646 33.1407 128.961 31.7468 128.063 31.3421C127.065 31.2058 126.053 31.2058 125.055 31.3421H123.888C122.856 31.3421 122.542 31.6565 122.317 32.6008C122.017 34.5951 120.977 36.4029 119.404 37.6618C117.831 38.9207 115.841 39.538 113.833 39.3909C111.849 39.2938 109.971 38.4637 108.561 37.0602C107.152 35.6566 106.312 33.7795 106.203 31.7917C105.889 29.4534 104.991 28.4641 103.24 28.4191C101.49 28.3742 100.413 29.4534 100.098 31.8367C99.9618 33.0132 99.512 34.1313 98.7964 35.0742C97.0942 37.0837 94.8057 38.5076 92.2529 39.145C89.7001 39.7823 87.0121 39.6011 84.5676 38.6268C82.8885 38.2128 81.3874 37.2672 80.2876 35.9305C79.1878 34.5938 78.5476 32.9372 78.4624 31.2071C78.4161 30.4357 78.0714 29.7132 77.5014 29.1925C76.9314 28.6719 76.1814 28.3943 75.4104 28.4191C74.6442 28.407 73.904 28.6971 73.3496 29.2271C72.7953 29.7572 72.4712 30.4847 72.4477 31.2521C72.3316 33.0596 71.5475 34.7587 70.2483 36.0183C68.7198 37.4895 66.8399 38.5432 64.7887 39.0785C62.7375 39.6139 60.5836 39.6133 58.5329 39.0763C56.5045 38.8817 54.6096 37.9768 53.1812 36.5211C51.7527 35.0655 50.8822 33.152 50.7226 31.1171C50.6434 30.358 50.2794 29.6571 49.7045 29.1563C49.1296 28.6555 48.3864 28.3922 47.6251 28.4191C47.244 28.4191 46.867 28.4951 46.5155 28.6425C46.164 28.79 45.8453 29.0056 45.578 29.2776C45.3106 29.5497 45.1 29.8723 44.9583 30.2267C44.8166 30.5811 44.7463 30.9604 44.7522 31.3421C44.6909 32.9857 44.1476 34.5745 43.1895 35.9102C42.2315 37.2459 40.9014 38.2688 39.366 38.8513C38.1631 39.3411 36.8592 39.53 35.5672 39.4013C34.2751 39.2726 33.0339 38.8304 31.9508 38.113C30.8677 37.3956 29.9755 36.4245 29.3514 35.2839C28.7272 34.1432 28.39 32.8672 28.3689 31.5666C28.3733 30.9768 28.2164 30.3969 27.9158 29.8897C27.6151 29.3825 27.1822 28.9672 26.6632 28.6886C25.0472 27.9242 22.4438 28.6891 22.1745 31.9267C22.1437 33.8909 21.3722 35.7706 20.015 37.1886C18.6579 38.6066 16.8156 39.4576 14.8579 39.5709C12.8793 39.7015 10.9197 39.1147 9.33739 37.9176C7.75505 36.7205 6.65534 34.9931 6.23935 33.0509C5.9255 32.351 5.77832 31.5873 5.80977 30.8206C5.84121 30.054 6.05061 29.3055 6.42072 28.6338C6.79082 27.962 7.31159 27.3855 7.94234 26.9502C8.57309 26.515 9.29622 26.2328 10.0546 26.1258L74.0636 6.78962C74.9071 6.4984 75.8239 6.4984 76.6674 6.78962L87.1259 10.0277L141.574 26.7104C142.498 26.8421 143.341 27.3086 143.945 28.0212C144.549 28.7338 144.871 29.643 144.851 30.5775V30.7125Z" fill="white"/>
<path d="M111.23 50.5879C107.651 50.5175 104.106 51.2958 100.884 52.8588C97.6626 54.4217 94.8556 56.7249 92.6916 59.5813C91.7489 60.7954 90.8962 62.0548 89.9984 63.269C88.36 65.5741 86.1332 67.3958 83.5509 68.5429C80.9686 69.69 78.1257 70.1201 75.3203 69.789L69.3056 69.1149C64.2551 68.2355 59.0615 68.7323 54.2685 70.5536C53.9345 70.6715 53.5769 70.7087 53.2258 70.6618C52.8747 70.6149 52.5398 70.485 52.2483 70.2836C49.034 68.7484 45.4163 68.2743 41.9158 68.9288C38.4154 69.5833 35.2126 71.3328 32.7675 73.9262C29.598 77.746 27.6992 82.4625 27.3363 87.4163C27.2506 88.1172 27.3142 88.8284 27.5231 89.5028C27.7321 90.1771 28.081 90.7994 28.5478 91.3285C30.5248 93.6914 33.3419 95.1915 36.403 95.5107C37.074 95.6414 37.7655 95.6238 38.4293 95.4602C39.0931 95.2965 39.7136 94.9905 40.2474 94.5627C40.7811 94.1349 41.2157 93.5957 41.5208 92.9829C41.8259 92.3701 41.9939 91.6984 42.0139 91.0139C42.2562 89.4659 42.6938 87.9549 43.3158 86.5172C43.6081 85.9772 43.9702 85.4779 44.393 85.0329C44.5762 84.9012 44.7961 84.8304 45.0215 84.8304C45.247 84.8304 45.4669 84.9012 45.65 85.0329C46.1438 85.0329 45.65 85.7074 45.65 86.0671C45.47 89.6118 44.4546 93.0635 42.6873 96.1397C40.1288 100.636 37.6153 105.133 35.0118 109.63C34.0395 111.142 33.3969 112.844 33.1264 114.622C32.6967 116.461 32.9582 118.395 33.8606 120.053C34.763 121.712 36.243 122.98 38.0189 123.615C39.805 124.259 41.7558 124.28 43.5558 123.677C45.3558 123.073 46.9004 121.879 47.9393 120.287C50.2746 116.388 52.8846 112.662 55.7496 109.135C58.5204 105.706 62.1638 103.089 66.2958 101.561C70.4277 100.034 74.8949 99.6525 79.2254 100.457C83.2425 101.373 86.9637 103.291 90.0434 106.033C95.0308 110.218 99.4652 115.023 103.24 120.332C104.352 121.874 105.923 123.024 107.729 123.615C108.918 124.13 110.232 124.284 111.508 124.06C112.784 123.837 113.966 123.244 114.91 122.356C115.912 121.467 116.626 120.299 116.962 119.002C117.298 117.704 117.24 116.336 116.796 115.071C115.139 110.187 113.114 105.437 110.736 100.861C109.165 97.6239 107.549 94.431 106.248 91.1484C104.965 87.2104 105.238 82.93 107.011 79.1875C107.28 78.3332 107.774 78.6477 108.312 78.9175C109.993 80.0458 111.504 81.4087 112.801 82.9646C113.356 83.6304 114.04 84.1766 114.811 84.5708C115.583 84.9649 116.426 85.1988 117.29 85.258C118.149 85.2824 119.005 85.1323 119.805 84.8167C120.605 84.501 121.334 84.0263 121.946 83.4213C122.558 82.8164 123.042 82.0936 123.368 81.2965C123.694 80.4993 123.856 79.6439 123.843 78.7824C124.281 71.7184 122.285 64.7182 118.188 58.9523C117.757 58.528 117.465 57.9815 117.353 57.3868C117.241 56.792 117.313 56.1774 117.559 55.6247C117.757 55.1261 117.83 54.5861 117.772 54.0526C117.713 53.5192 117.526 53.0083 117.224 52.5645C116.923 52.1208 116.518 51.7578 116.044 51.5073C115.57 51.2568 115.042 51.1267 114.507 51.128L111.23 50.5879ZM117.559 78.6029L114.507 75.725C113.556 74.7654 112.485 73.9337 111.32 73.2515C110.636 72.7172 109.846 72.3362 109.003 72.134C108.16 71.9317 107.283 71.9128 106.432 72.0791C105.581 72.2453 104.776 72.5925 104.07 73.0973C103.364 73.6021 102.775 74.2529 102.342 75.0053C100.739 77.6883 99.7608 80.6994 99.481 83.8138C99.2012 86.9282 99.6272 90.0656 100.727 92.9922C101.669 95.4205 102.836 97.8036 103.958 100.187C106.617 105.319 108.97 110.604 111.005 116.015C111.005 116.555 111.768 117.185 111.005 117.679C110.704 117.841 110.357 117.894 110.021 117.829C109.686 117.763 109.384 117.583 109.165 117.32C108.492 116.654 107.876 115.932 107.325 115.161C102.882 108.913 97.4552 103.43 91.2554 98.9277C87.7881 96.4154 83.7825 94.7496 79.5586 94.0626C75.3347 93.3756 71.0091 93.6868 66.9264 94.9711C59.4811 97.3243 53.0147 102.064 48.5229 108.461C46.6826 110.938 44.989 113.52 43.4506 116.195C43.1779 116.769 42.6914 117.214 42.0955 117.432C41.4997 117.651 40.8415 117.627 40.2632 117.365C38.8269 116.825 39.2312 115.566 39.5454 114.487C39.7462 113.851 40.0329 113.246 40.398 112.688C42.6873 108.641 44.8869 104.639 47.2659 100.547C49.4385 97.2544 50.8637 93.5241 51.4406 89.6197C51.5161 86.8644 51.8618 84.1234 52.4729 81.4359C52.5507 81.0719 52.5536 80.6956 52.4817 80.3304C52.4098 79.9652 52.2643 79.6187 52.0543 79.3116C51.8443 79.0045 51.5743 78.7434 51.2604 78.5442C50.9464 78.345 50.5955 78.2117 50.2286 78.1528C48.5394 77.6951 46.7622 77.6696 45.0604 78.0782C43.3587 78.4867 41.7866 79.3162 40.4879 80.4912C38.4818 82.4743 37.1474 85.0379 36.6726 87.8209C36.6726 88.3155 36.6725 89.0802 35.9543 89.1701C35.3185 89.1478 34.7148 88.8847 34.265 88.434C33.8152 87.9834 33.5525 87.3786 33.5302 86.7417C33.8959 84.3976 34.6548 82.1323 35.7745 80.0416C36.8024 78.1842 38.3721 76.6854 40.2731 75.7453C42.1741 74.8051 44.3163 74.4682 46.4133 74.7803C48.2011 75.0042 49.9254 75.5853 51.485 76.4891C52.0585 76.8432 52.7192 77.0308 53.3929 77.0308C54.0666 77.0308 54.7273 76.8432 55.3008 76.4891C58.7726 74.8671 62.6395 74.2891 66.4327 74.8253C69.126 75.0951 71.7745 75.5002 74.4677 75.77C79.58 76.3105 84.7209 75.0545 89.0111 72.2174C92.2311 69.8559 94.9984 66.9308 97.1803 63.5835C98.398 61.8228 99.9541 60.3234 101.758 59.1729C103.561 58.0224 105.576 57.244 107.684 56.8834C110.242 56.3888 110.467 56.5239 111.365 58.7722C111.774 59.6961 112.286 60.5708 112.891 61.3801C113.935 62.9062 114.88 64.4986 115.719 66.1469C117.534 70.0296 118.173 74.36 117.559 78.6029Z" fill="white"/>
<path d="M75.0509 151H145.928C146.893 151.079 147.862 150.925 148.756 150.551C149.412 150.297 149.973 149.844 150.359 149.256C150.746 148.667 150.938 147.972 150.91 147.267C150.753 144.182 150.753 141.09 150.91 138.005C150.969 136.901 150.795 135.796 150.397 134.765C150 133.733 149.388 132.798 148.604 132.021C147.819 131.243 146.879 130.641 145.846 130.254C144.812 129.867 143.707 129.704 142.606 129.776C134.033 129.776 125.414 129.776 116.841 129.776C104.722 129.776 92.6021 129.776 80.4826 129.776C78.6871 129.776 78.3726 129.281 78.4174 127.617C78.4174 120.422 78.4174 113.273 78.4174 106.078C78.5005 105.4 78.3672 104.712 78.0366 104.114C77.706 103.517 77.1955 103.039 76.5775 102.75C76.0711 102.505 75.5083 102.401 74.9479 102.448C74.3875 102.495 73.8498 102.692 73.3912 103.018C72.9326 103.344 72.5699 103.788 72.3408 104.302C72.1117 104.817 72.0247 105.383 72.0888 105.943V127.527C72.0888 130.046 72.4029 129.731 69.7995 129.731H9.11211C7.89842 129.586 6.66762 129.719 5.51271 130.12C4.3578 130.521 3.30907 131.179 2.44481 132.044C1.58055 132.91 0.923305 133.961 0.523192 135.118C0.123079 136.275 -0.00965639 137.508 0.134705 138.724V146.953C0.134705 149.786 1.16704 150.82 3.99492 150.82H75.1857L75.0509 151ZM75.5901 144.93H38.0191C27.9195 144.93 17.8199 144.93 7.72035 144.93C6.41863 144.93 5.88051 144.615 6.01517 143.221C6.14983 141.827 6.01517 140.298 6.01517 138.724C6.01517 135.846 6.01486 135.666 9.06718 135.666H142.247C144.806 135.666 145.075 135.981 145.12 138.589C145.12 139.938 145.12 141.287 145.12 142.636C145.12 143.985 144.761 144.795 143.01 144.795C120.566 144.885 98.0785 144.93 75.5901 144.93Z" fill="white"/>
</g>
<defs>
<clipPath id="clip0_1164_298">
<rect width="151" height="151" fill="white"/>
</clipPath>
</defs>
</svg>
