<svg width="30" height="29" viewBox="0 0 30 29" fill="none" xmlns="http://www.w3.org/2000/svg">
<path d="M10 3.625C6.55375 3.625 3.75 6.33529 3.75 9.66667V19.3333C3.75 22.6647 6.55375 25.375 10 25.375H20C23.4463 25.375 26.25 22.6647 26.25 19.3333V9.66667C26.25 6.33529 23.4463 3.625 20 3.625H10ZM10 6.04167H20C22.0675 6.04167 23.75 7.66808 23.75 9.66667V19.3333C23.75 21.3319 22.0675 22.9583 20 22.9583H10C7.9325 22.9583 6.25 21.3319 6.25 19.3333V9.66667C6.25 7.66808 7.9325 6.04167 10 6.04167ZM21.25 7.25C20.9185 7.25 20.6005 7.37731 20.3661 7.60391C20.1317 7.83052 20 8.13786 20 8.45833C20 8.7788 20.1317 9.08615 20.3661 9.31275C20.6005 9.53936 20.9185 9.66667 21.25 9.66667C21.5815 9.66667 21.8995 9.53936 22.1339 9.31275C22.3683 9.08615 22.5 8.7788 22.5 8.45833C22.5 8.13786 22.3683 7.83052 22.1339 7.60391C21.8995 7.37731 21.5815 7.25 21.25 7.25ZM15 8.45833C11.5538 8.45833 8.75 11.1686 8.75 14.5C8.75 17.8314 11.5538 20.5417 15 20.5417C18.4462 20.5417 21.25 17.8314 21.25 14.5C21.25 11.1686 18.4462 8.45833 15 8.45833ZM15 10.875C17.0675 10.875 18.75 12.5014 18.75 14.5C18.75 16.4986 17.0675 18.125 15 18.125C12.9325 18.125 11.25 16.4986 11.25 14.5C11.25 12.5014 12.9325 10.875 15 10.875Z" fill="#009486"/>
</svg>
