<svg width="146" height="109" viewBox="0 0 146 109" fill="none" xmlns="http://www.w3.org/2000/svg">
<g clip-path="url(#clip0_1164_236)">
<path d="M77.5479 108.905C97.5711 108.905 117.642 108.666 137.666 108.905C139.952 108.97 142.228 108.572 144.354 107.736C146.481 106.899 148.414 105.641 150.035 104.038C151.657 102.435 152.933 100.521 153.787 98.4124C154.64 96.3036 155.053 94.0448 155 91.7724C155 66.6699 155 41.5674 155 16.5126C155.143 12.6242 153.85 8.81802 151.365 5.8116C148.879 2.80517 145.373 0.805912 141.507 0.191062C140.389 0.0960621 139.264 0.0960621 138.146 0.191062C97.8592 0.191062 57.5731 0.191062 17.3346 0.191062C15.05 0.145145 12.7793 0.560178 10.6607 1.41094C8.542 2.26171 6.61911 3.53074 5.00784 5.14107C3.39656 6.7514 2.1306 8.66929 1.28637 10.7797C0.442152 12.89 0.0370142 15.1488 0.0959059 17.4191C0.0959059 42.4261 0.0959059 67.4807 0.0959059 92.4877C-0.0622818 96.3702 1.21199 100.177 3.67904 103.191C6.14608 106.205 9.63615 108.22 13.4929 108.857C14.7468 109.057 16.0173 109.136 17.2865 109.095L77.5479 108.905ZM77.5479 6.39532H138.386C139.74 6.30581 141.098 6.50262 142.37 6.97264C143.642 7.44266 144.799 8.17476 145.766 9.1217C146.732 10.0686 147.486 11.2087 147.977 12.4662C148.468 13.7236 148.685 15.0702 148.614 16.4171V92.7744C148.68 94.9483 147.997 97.0792 146.679 98.8149C145.36 100.551 143.485 101.787 141.363 102.319C139.779 102.602 138.169 102.714 136.561 102.653H17.3826C15.9835 102.784 14.5723 102.608 13.2491 102.137C11.9259 101.667 10.7228 100.914 9.72458 99.9305C8.72632 98.9475 7.95752 97.7587 7.47201 96.448C6.98649 95.1373 6.79599 93.7367 6.91458 92.345C6.91458 67.1471 6.91458 41.9488 6.91458 16.7509C6.77014 15.8178 6.77014 14.8685 6.91458 13.9354C7.43263 11.6355 8.78839 9.60716 10.721 8.24145C12.6537 6.87575 15.0268 6.26901 17.3826 6.53805L77.5479 6.39532Z" fill="white"/>
<path d="M96.7548 44.0489C97.0306 40.9703 96.673 37.868 95.7032 34.9313C94.7335 31.9946 93.172 29.2846 91.1143 26.9671C89.0566 24.6496 86.5459 22.773 83.7346 21.4514C80.9234 20.1298 77.8709 19.3911 74.763 19.2802C71.867 19.2014 68.9882 19.7497 66.3266 20.8869C63.665 22.0241 61.2846 23.7231 59.3497 25.8661C58.4373 26.7728 57.9572 26.8205 56.9969 25.8661C54.2537 22.8086 50.6298 20.6645 46.6179 19.7253C42.606 18.7861 38.4003 19.0974 34.5725 20.6166C30.6451 21.9137 27.1739 24.3019 24.5699 27.499C21.9659 30.696 20.3383 34.5682 19.8795 38.6562C19.3144 43.0485 19.6435 47.5087 20.8479 51.7719C22.0522 56.0351 24.1071 60.014 26.8899 63.472C32.0256 70.0829 38.2227 75.8072 45.2323 80.414C49.2657 83.3252 53.4913 85.9498 57.2847 89.195C57.7168 89.529 58.0532 90.1014 58.7735 89.481C64.8717 84.2314 71.9302 80.2704 77.9804 75.164C83.4296 70.8493 88.0912 65.6352 91.7614 59.7495C94.7389 55.0215 96.457 49.6188 96.7548 44.0489ZM58.3409 36.9854L60.7418 33.3584C62.6304 30.1653 65.5943 27.7388 69.1091 26.5075C72.6238 25.2761 76.463 25.3196 79.9487 26.6298C83.4729 28.0468 86.4236 30.588 88.3359 33.8535C90.2482 37.1191 91.014 40.9233 90.5129 44.6688C89.498 51.9043 86.1246 58.6098 80.9094 63.7581C74.0892 70.1974 66.7497 76.0713 58.9651 81.3205C58.2929 81.7977 57.861 81.3205 57.3808 81.3205L53.2033 78.2184C46.5962 73.8724 40.4785 68.8324 34.9565 63.1854C29.5267 57.7613 26.3547 50.5021 26.0734 42.8558C25.9476 39.2591 27.0109 35.7201 29.1008 32.781C31.1908 29.842 34.1924 27.6647 37.6457 26.582C41.1067 25.5811 44.8066 25.7718 48.1448 27.1232C51.4831 28.4746 54.2638 30.9071 56.0362 34.0266C56.6731 35.0947 57.4307 36.0874 58.2934 36.9854H58.3409Z" fill="white"/>
<path d="M103.333 83.3731C103.32 82.5334 102.976 81.7318 102.374 81.1425C101.772 80.5531 100.961 80.2231 100.116 80.2232C99.6991 80.1968 99.2811 80.2563 98.8883 80.3986C98.4955 80.5408 98.1361 80.7623 97.8338 81.0493C97.5315 81.3363 97.2926 81.6824 97.1316 82.0658C96.9707 82.4493 96.8914 82.8622 96.8989 83.2776C96.8792 83.6946 96.9455 84.111 97.0941 84.5015C97.2427 84.892 97.4704 85.2482 97.7629 85.5478C98.0554 85.8475 98.4069 86.0845 98.7951 86.244C99.1833 86.4034 99.6002 86.4816 100.02 86.4747C100.87 86.4879 101.692 86.1713 102.31 85.5921C102.929 85.0128 103.296 84.2171 103.333 83.3731Z" fill="white"/>
<path d="M109.72 80.2227C109.302 80.2091 108.886 80.2813 108.498 80.4354C108.11 80.5895 107.758 80.8222 107.465 81.1181C107.172 81.4141 106.943 81.7671 106.794 82.1551C106.645 82.5431 106.578 82.9578 106.598 83.3726C106.585 83.7878 106.658 84.201 106.813 84.5867C106.968 84.9724 107.202 85.3223 107.499 85.6138C107.797 85.9052 108.152 86.132 108.543 86.2802C108.933 86.4284 109.35 86.4942 109.768 86.4742C110.621 86.4742 111.439 86.1377 112.043 85.538C112.646 84.9384 112.985 84.1251 112.985 83.2771C112.979 82.8614 112.889 82.451 112.72 82.0706C112.552 81.6902 112.308 81.3471 112.003 81.0622C111.699 80.7773 111.339 80.5563 110.947 80.4121C110.555 80.2678 110.138 80.2035 109.72 80.2227Z" fill="white"/>
<path d="M122.588 83.3727C122.608 82.9578 122.542 82.5432 122.393 82.1551C122.244 81.7671 122.016 81.4141 121.722 81.1182C121.429 80.8222 121.077 80.5895 120.689 80.4354C120.301 80.2813 119.885 80.2091 119.467 80.2228C119.052 80.1959 118.636 80.2555 118.246 80.3981C117.856 80.5408 117.499 80.7634 117.201 81.0512C116.902 81.3389 116.668 81.6855 116.512 82.0689C116.357 82.4523 116.284 82.864 116.298 83.2771C116.278 83.6942 116.345 84.1106 116.493 84.5011C116.642 84.8916 116.87 85.2477 117.162 85.5474C117.455 85.847 117.805 86.0841 118.194 86.2435C118.582 86.403 118.999 86.4812 119.419 86.4742C119.835 86.4872 120.249 86.4164 120.636 86.2657C121.023 86.115 121.376 85.8881 121.672 85.5981C121.968 85.3081 122.202 84.9611 122.359 84.5786C122.517 84.1961 122.595 83.7859 122.588 83.3727Z" fill="white"/>
<path d="M132.24 83.3726C132.268 82.9559 132.206 82.5377 132.06 82.1463C131.914 81.7549 131.685 81.3993 131.391 81.1017C131.096 80.8042 130.741 80.5716 130.35 80.4202C129.958 80.2687 129.539 80.2016 129.119 80.2227C128.712 80.21 128.305 80.2777 127.925 80.4225C127.544 80.5673 127.196 80.7864 126.901 81.0662C126.606 81.346 126.37 81.6811 126.207 82.0525C126.043 82.4239 125.956 82.824 125.95 83.2293C125.923 83.6502 125.984 84.0716 126.13 84.4678C126.275 84.8639 126.502 85.2261 126.795 85.531C127.088 85.8358 127.442 86.077 127.834 86.2393C128.225 86.4017 128.647 86.4815 129.071 86.4741C129.489 86.4941 129.905 86.4283 130.296 86.2801C130.686 86.1319 131.042 85.9051 131.34 85.6137C131.637 85.3222 131.871 84.9723 132.026 84.5866C132.181 84.2009 132.254 83.7877 132.24 83.3726Z" fill="white"/>
</g>
<defs>
<clipPath id="clip0_1164_236">
<rect width="155" height="109" fill="white"/>
</clipPath>
</defs>
</svg>
