<svg width="30" height="30" viewBox="0 0 30 30" fill="none" xmlns="http://www.w3.org/2000/svg">
<path d="M15.1416 1.25C8.79 1.25 3.75 6.51471 3.75 12.8174C3.75 16.3208 5.88344 20.0753 8.22754 23.1299C9.39959 24.6572 10.6391 25.9914 11.7798 26.98C12.3501 27.4743 12.8949 27.8819 13.4253 28.1909C13.9557 28.4999 14.4544 28.75 15.1416 28.75C15.8509 28.75 16.2958 28.4812 16.7944 28.1714C17.2931 27.8615 17.8098 27.4556 18.3569 26.9629C19.4513 25.9774 20.6619 24.6477 21.814 23.1226C24.1181 20.0722 26.25 16.3208 26.25 12.8174C26.25 6.51471 21.2468 1.25 15.1416 1.25ZM15.1416 3.75C19.7989 3.75 23.75 7.83756 23.75 12.8174C23.75 15.2077 21.9456 18.7957 19.8169 21.6138C18.7525 23.0228 17.6225 24.2582 16.6821 25.105C16.2119 25.5284 15.7881 25.8559 15.4761 26.0498C15.3093 26.1534 15.1712 26.2015 15.105 26.2256C15.0475 26.2047 14.9105 26.163 14.6826 26.0303C14.3483 25.8355 13.9047 25.5122 13.418 25.0903C12.4445 24.2466 11.2921 23.0134 10.2124 21.6064C8.05307 18.7926 6.25 15.2077 6.25 12.8174C6.25 7.83756 10.1657 3.75 15.1416 3.75ZM15 7.5C14.4925 7.5 14.0147 7.59926 13.5522 7.73926C14.406 8.13801 15 8.99625 15 10C15 11.3813 13.8813 12.5 12.5 12.5C11.4963 12.5 10.638 11.906 10.2393 11.0522C10.0993 11.5147 10 11.9925 10 12.5C10 15.2575 12.2425 17.5 15 17.5C17.7575 17.5 20 15.2575 20 12.5C20 9.7425 17.7575 7.5 15 7.5Z" fill="#009486"/>
</svg>
