<svg width="144" height="143" viewBox="0 0 144 143" fill="none" xmlns="http://www.w3.org/2000/svg">
<g clip-path="url(#clip0_1164_21)">
<path d="M137.38 108.061C137.141 105.633 136.854 101.634 136.471 97.6828C136.367 97.112 136.418 96.5234 136.62 95.979C136.822 95.4347 137.167 94.9545 137.62 94.5885C140.68 91.7323 143.644 88.8286 146.657 85.8772C148.031 84.7276 148.901 83.0888 149.08 81.3104C149.258 79.5319 148.732 77.7543 147.613 76.3565C145.366 72.8814 143.214 69.4061 140.967 65.9786C140.658 65.5488 140.465 65.048 140.407 64.523C140.348 63.998 140.426 63.4664 140.632 62.9796C141.923 59.2189 143.118 55.4111 144.314 51.6028C145.057 49.7553 145.054 47.693 144.305 45.8476C143.557 44.0023 142.121 42.5165 140.297 41.7009C136.95 39.7968 133.603 37.8452 130.208 35.9887C129.781 35.7847 129.413 35.477 129.138 35.0944C128.862 34.7117 128.687 34.266 128.63 33.7985C128.056 29.8474 127.291 25.944 126.669 21.9929C126.522 19.9767 125.59 18.0974 124.072 16.7549C122.553 15.4124 120.568 14.7126 118.54 14.8047L106.538 14.4241C106.099 14.4323 105.666 14.3271 105.28 14.1185C104.895 13.9098 104.57 13.605 104.338 13.234C101.899 9.90177 99.5567 6.66494 96.9745 3.33268C96.4516 2.49037 95.7665 1.75904 94.959 1.18087C94.1515 0.602706 93.2372 0.189036 92.2686 -0.0365296C91.3001 -0.262096 90.2964 -0.295118 89.3151 -0.133573C88.3337 0.0279721 87.394 0.38091 86.55 0.904851L75.5996 6.14113C75.2943 6.31661 74.9481 6.40902 74.5956 6.40902C74.243 6.40902 73.8969 6.31661 73.5916 6.14113L62.4497 0.857201C60.7746 -0.0439681 58.825 -0.299493 56.9727 0.139543C55.1205 0.57858 53.4955 1.68142 52.4081 3.23738C49.9216 6.52203 47.6261 9.75887 45.044 13.1387C44.7774 13.5608 44.4016 13.9032 43.9553 14.1295C43.5091 14.3558 43.0097 14.4576 42.5101 14.4241C38.589 14.4241 34.6197 14.4241 30.6987 14.4241C28.6742 14.3666 26.7036 15.0769 25.1855 16.4115C23.6674 17.7461 22.7152 19.6053 22.522 21.6123C21.9004 25.5158 21.183 29.3714 20.6092 33.2273C20.5581 33.7215 20.3767 34.1938 20.0827 34.5952C19.7887 34.9966 19.3927 35.3133 18.9357 35.5128C15.3015 37.4169 11.6673 39.4162 8.08097 41.4156C6.34286 42.3067 4.99618 43.805 4.29909 45.6233C3.60201 47.4417 3.60395 49.452 4.30376 51.2693C5.54702 54.9348 6.78994 58.6005 8.12883 62.2183C8.40177 62.799 8.51028 63.4427 8.44287 64.0802C8.37546 64.7177 8.1349 65.325 7.7465 65.8363C5.64252 68.9781 3.68185 72.1676 1.62569 75.357C0.398123 76.9684 -0.16221 78.9869 0.0601755 80.9971C0.282561 83.0074 1.27074 84.8557 2.82113 86.1625C5.54674 88.8283 8.22444 91.5419 11.0935 94.0649C11.6318 94.5171 12.0396 95.1037 12.2749 95.7646C12.5102 96.4255 12.5646 97.137 12.4325 97.8258C12.0022 101.777 11.6676 105.776 11.3807 109.727C11.1729 111.555 11.6547 113.396 12.7326 114.891C13.8104 116.386 15.4075 117.43 17.2143 117.819C21.1354 118.962 25.1041 120.009 29.073 121.104C29.5142 121.178 29.9282 121.366 30.2725 121.65C30.6169 121.935 30.8795 122.304 31.0337 122.722C32.4682 126.293 34.0459 129.815 35.5283 133.386C36.1786 135.432 37.6106 137.143 39.5156 138.149C41.4207 139.156 43.6464 139.376 45.7135 138.765C49.6345 137.908 53.5559 137.194 57.4292 136.289C57.8293 136.187 58.2484 136.186 58.6491 136.286C59.0499 136.386 59.4195 136.583 59.7243 136.861C62.8325 139.431 65.9885 142.002 69.2879 144.525C69.9768 145.215 70.7964 145.764 71.6992 146.138C72.6019 146.513 73.5698 146.705 74.5477 146.705C75.5256 146.705 76.4941 146.513 77.3968 146.138C78.2996 145.764 79.1186 145.215 79.8075 144.525C82.6766 142.192 85.5937 139.764 88.3671 137.479C88.9311 136.932 89.6353 136.55 90.4025 136.374C91.1698 136.197 91.9709 136.234 92.7187 136.48C96.305 137.337 99.9871 138.003 103.573 138.765C105.525 139.268 107.595 139.018 109.369 138.064C111.143 137.11 112.489 135.524 113.137 133.624C114.619 130.054 116.149 126.531 117.584 122.961C117.746 122.485 118.03 122.06 118.407 121.726C118.784 121.392 119.242 121.161 119.735 121.056C123.608 120.057 127.434 118.962 131.259 117.867C135.085 116.772 137.715 114.202 137.38 108.061ZM131.116 107.299V108.727C131.403 111.774 131.403 111.774 128.343 112.63C123.991 113.821 119.64 115.106 115.241 116.248C114.725 116.349 114.247 116.589 113.86 116.942C113.472 117.294 113.189 117.746 113.041 118.248C111.224 122.627 109.311 127.006 107.542 131.386C107.474 131.703 107.338 132.002 107.143 132.261C106.948 132.52 106.698 132.735 106.411 132.889C106.125 133.043 105.808 133.132 105.483 133.153C105.158 133.173 104.833 133.122 104.53 133.005C99.7477 131.91 94.966 131.006 90.1842 129.958C89.5874 129.815 88.9641 129.823 88.3712 129.981C87.7783 130.139 87.2346 130.442 86.7893 130.862C83.1552 133.909 79.4252 136.813 75.8389 139.812C75.6414 140.035 75.3988 140.213 75.1268 140.335C74.8547 140.458 74.5596 140.521 74.2611 140.521C73.9626 140.521 73.6675 140.458 73.3955 140.335C73.1234 140.213 72.8802 140.035 72.6827 139.812C69.0008 136.813 65.2234 133.861 61.5893 130.767C61.1688 130.355 60.6476 130.06 60.0775 129.91C59.5073 129.76 58.9075 129.76 58.3374 129.911C53.5557 130.958 48.7742 131.815 44.3272 132.862C43.9953 132.987 43.6406 133.041 43.2864 133.021C42.9322 133.001 42.5863 132.908 42.2707 132.746C41.9552 132.585 41.6771 132.359 41.4547 132.083C41.2324 131.808 41.0704 131.49 40.9796 131.148C39.1625 126.721 37.2497 122.389 35.4804 117.962C35.3221 117.524 35.0552 117.132 34.7041 116.824C34.3529 116.516 33.9293 116.302 33.4725 116.201C28.6907 114.963 23.9089 113.582 19.1271 112.345C17.7882 111.964 17.023 111.441 17.1665 109.87C17.6446 104.824 17.9794 99.8251 18.4576 94.7791C18.5291 94.3193 18.4783 93.8489 18.3105 93.4146C18.1427 92.9804 17.864 92.5972 17.5015 92.3036C13.8674 88.8285 10.2809 85.3061 6.64679 81.8787C6.43068 81.734 6.24834 81.5447 6.1121 81.3237C5.97587 81.1028 5.88877 80.8552 5.85702 80.5979C5.82528 80.3406 5.84917 80.0792 5.92765 79.832C6.00613 79.5848 6.13721 79.3574 6.31173 79.1649C9.03734 75.0234 11.6198 70.8343 14.3454 66.6928C14.6661 66.2412 14.8652 65.7157 14.9238 65.1657C14.9824 64.6157 14.8983 64.0593 14.6798 63.5508C13.054 59.1713 11.5717 54.697 9.89806 50.3174C9.71765 49.9885 9.61165 49.624 9.58753 49.25C9.5634 48.876 9.62189 48.5015 9.75856 48.1523C9.89522 47.8031 10.1071 47.4875 10.379 47.2283C10.651 46.9691 10.9764 46.7726 11.3328 46.6519C15.5408 44.4145 19.701 41.8913 23.9568 39.8443C24.4568 39.614 24.8852 39.2537 25.1966 38.8012C25.508 38.3488 25.6908 37.8214 25.726 37.2741C26.4433 32.5137 27.3518 27.7534 28.069 22.993C28.0571 22.6541 28.1211 22.3164 28.2564 22.0051C28.3917 21.6939 28.5948 21.4167 28.8512 21.1933C29.1076 20.97 29.4106 20.8062 29.7384 20.7139C30.0663 20.6217 30.4106 20.6037 30.7465 20.6605C35.5283 20.6605 40.3101 20.6605 45.0918 20.6605C45.6757 20.6885 46.2564 20.5568 46.7706 20.2799C47.2847 20.003 47.7127 19.591 48.0086 19.0892C50.6864 15.3761 53.4603 11.7109 56.2337 8.04539C57.8595 5.85563 57.9072 5.85519 60.2981 6.99767L73.1129 13.0434C73.4661 13.231 73.8608 13.3293 74.2611 13.3293C74.6614 13.3293 75.0555 13.231 75.4087 13.0434L88.9888 6.5694C89.1997 6.40983 89.4437 6.29933 89.7032 6.24631C89.9628 6.19329 90.2313 6.19919 90.4883 6.26316C90.7453 6.32714 90.9848 6.44752 91.1888 6.61589C91.3927 6.78426 91.5555 6.9963 91.6662 7.23592C94.4875 11.1394 97.5002 14.9004 100.274 18.8515C100.651 19.4363 101.178 19.9111 101.799 20.2287C102.42 20.5463 103.115 20.6956 103.812 20.6605C108.594 20.6605 113.376 21.0889 118.157 21.2317C119.353 21.2317 119.783 21.7552 119.975 22.8977C120.787 27.9437 121.648 32.9417 122.461 37.9877C122.507 38.3971 122.653 38.7893 122.887 39.1295C123.12 39.4698 123.434 39.7478 123.8 39.9396C128.008 42.2722 132.168 44.6999 136.424 47.0325C136.746 47.1373 137.04 47.3118 137.286 47.5433C137.532 47.7748 137.724 48.058 137.848 48.3719C137.971 48.6859 138.023 49.0228 138 49.3592C137.977 49.6956 137.88 50.023 137.715 50.3174C136.185 55.0778 134.75 59.4574 132.933 64.0273C132.74 64.5139 132.678 65.0419 132.754 65.5597C132.829 66.0774 133.04 66.5669 133.364 66.9787C135.994 71.025 138.48 75.1662 141.158 79.1649C141.346 79.3673 141.488 79.6073 141.577 79.8687C141.665 80.13 141.696 80.4067 141.669 80.681C141.642 80.9554 141.557 81.2211 141.42 81.4603C141.282 81.6995 141.095 81.9066 140.871 82.0687C137.189 85.4962 133.65 89.0191 130.016 92.4465C129.714 92.6794 129.476 92.9852 129.326 93.335C129.175 93.6849 129.117 94.0675 129.156 94.4461C130.399 98.9208 130.733 103.015 131.116 107.299Z" fill="white"/>
<path d="M45.905 56.0769C45.905 58.5047 45.905 60.8374 45.905 63.3604C46.0265 66.123 47.2025 68.735 49.1931 70.6636C51.1837 72.5922 53.8388 73.6918 56.6162 73.7376C59.4617 73.8821 62.2511 72.9122 64.3871 71.0349C66.5231 69.1577 67.8359 66.5222 68.0447 63.6933C68.4995 58.4826 68.4995 53.2428 68.0447 48.0321C67.6946 45.3823 66.3832 42.951 64.3573 41.1972C62.3315 39.4435 59.7309 38.4886 57.0463 38.5114C54.3586 38.4582 51.7479 39.4037 49.7231 41.1641C47.6983 42.9246 46.4052 45.3736 46.0965 48.0321C46.0965 50.6503 46.0965 53.2681 46.0965 55.8863L45.905 56.0769ZM61.6372 56.0769C61.8291 58.6757 61.8291 61.2851 61.6372 63.8839C61.5881 64.5082 61.3941 65.1124 61.0705 65.6493C60.7469 66.1862 60.3024 66.6413 59.7723 66.9783C59.1052 67.3764 58.3507 67.6062 57.574 67.6483C56.7974 67.6904 56.0217 67.5436 55.3151 67.22C54.6084 66.8964 53.9922 66.4062 53.519 65.7917C53.0457 65.1772 52.7301 64.4567 52.5996 63.6933C52.2408 59.957 52.2408 56.1952 52.5996 52.4589C52.5996 51.6973 52.5996 50.9357 52.5996 50.1741C52.5996 47.175 54.1777 45.4137 56.9033 45.4137C58.1234 45.4115 59.2978 45.8736 60.1867 46.7055C61.0757 47.5374 61.6119 48.6758 61.6851 49.8882C61.7807 51.5543 61.6372 53.554 61.6372 55.6009V56.0769Z" fill="white"/>
<path d="M103.286 91.1133C103.286 88.6856 103.286 86.3528 103.286 83.8299C103.141 81.0633 101.943 78.4558 99.9353 76.5371C97.928 74.6183 95.2621 73.5327 92.4795 73.5002C89.6346 73.3824 86.8561 74.3773 84.7383 76.2721C82.6206 78.1669 81.3316 80.8112 81.1467 83.6398C80.6929 88.8029 80.6929 93.9956 81.1467 99.1587C81.4859 101.804 82.7881 104.234 84.806 105.989C86.824 107.743 89.418 108.701 92.0972 108.679C94.7902 108.734 97.4071 107.789 99.4397 106.03C101.472 104.27 102.775 101.821 103.095 99.1587C103.095 96.5881 103.095 93.9221 103.095 91.304L103.286 91.1133ZM97.1656 91.1133C97.1656 92.7319 97.1658 95.1596 96.8311 97.5874C96.4964 100.015 95.2529 102.062 92.4795 102.348C91.2113 102.348 89.9948 101.846 89.0981 100.954C88.2013 100.061 87.6977 98.8499 87.6977 97.5874C87.3871 93.1339 87.3871 88.6646 87.6977 84.2111C88.0325 81.4024 89.3715 80.1172 92.0493 80.1172C92.6312 80.0651 93.2174 80.1289 93.7742 80.3049C94.331 80.4809 94.8473 80.765 95.2924 81.1417C95.7376 81.5184 96.1029 81.9798 96.367 82.4986C96.6312 83.0173 96.789 83.5833 96.8311 84.1634C97.1014 86.502 97.229 88.8547 97.2134 91.2087L97.1656 91.1133Z" fill="white"/>
<path d="M93.723 38.2731C91.8581 37.7971 90.6148 38.8445 89.5628 40.7486C77.449 62.7415 65.3033 84.6865 53.1258 106.584C52.026 108.536 52.1696 108.536 54.4648 108.774C55.6445 108.988 56.8623 108.787 57.9093 108.205C58.9563 107.624 59.7669 106.697 60.2027 105.585C72.0137 84.1155 84.1115 62.7415 95.9703 41.4151C97.6917 38.2733 97.644 38.2731 93.723 38.2731Z" fill="white"/>
</g>
<defs>
<clipPath id="clip0_1164_21">
<rect width="149" height="147" fill="white"/>
</clipPath>
</defs>
</svg>
