<svg width="135" height="138" viewBox="0 0 135 138" fill="none" xmlns="http://www.w3.org/2000/svg">
<rect x="177.087" y="103.853" width="47" height="203.439" transform="rotate(135 177.087 103.853)" fill="#009486"/>
<path d="M73.3798 20.5784L57.56 28.2879L55.1082 25.8361L73.79 17.3716L75.3561 18.9377L73.3798 20.5784ZM65.0084 35.7363L72.7086 19.9072L74.34 17.9216L75.9154 19.497L67.4695 38.1974L65.0084 35.7363ZM69.8467 30.5066L67.9915 32.3617L60.6084 24.9785L62.4635 23.1234L69.8467 30.5066ZM81.1079 31.6625L71.0213 41.7492L68.7746 39.5025L78.8612 29.4159L81.1079 31.6625ZM87.6894 38.244L77.0807 39.7728L74.5171 37.2092L76.251 34.8787L78.1248 36.7525L84.8834 35.438L87.6894 38.244ZM74.9739 45.7018L76.3349 38.2627L79.3833 38.7567L77.929 48.6569L74.9739 45.7018ZM79.2248 49.9527L89.3114 39.8661L91.5581 42.1127L83.2613 50.4095L87.2139 54.3621L95.5107 46.0653L97.7667 48.3213L87.68 58.4079L79.2248 49.9527ZM90.831 57.9978L85.8809 62.5936L83.8207 60.5334L86.8131 57.541L85.6012 56.3291L87.3817 54.5485L90.831 57.9978ZM103.127 53.6816L93.0403 63.7682L90.7843 61.5122L100.871 51.4256L103.127 53.6816ZM103.369 48.6289C103.711 48.2871 104.106 48.1162 104.553 48.1162C105.013 48.1162 105.445 48.3182 105.849 48.7222C106.247 49.1199 106.446 49.5487 106.446 50.0086C106.452 50.4623 106.284 50.8601 105.942 51.2019C105.607 51.5375 105.212 51.7022 104.758 51.696C104.305 51.6897 103.879 51.4878 103.481 51.09C103.077 50.686 102.872 50.2572 102.866 49.8035C102.866 49.3561 103.034 48.9645 103.369 48.6289ZM102.558 63.4233L104.889 65.7538L97.0955 67.8234L94.7742 65.5021L102.558 63.4233ZM109.354 59.9088L113.68 64.2343L103.593 74.321L101.356 72.0836L109.671 63.7682L107.583 61.68C107.16 61.2574 106.738 60.984 106.315 60.8597C105.899 60.7292 105.507 60.7167 105.141 60.8224C104.78 60.9218 104.479 61.0927 104.236 61.3351C103.994 61.5775 103.82 61.8696 103.714 62.2114C103.615 62.5594 103.621 62.9323 103.733 63.3301C103.851 63.734 104.106 64.1318 104.497 64.5233L107.462 67.4878L105.821 69.1285L102.857 66.164C102.235 65.5425 101.757 64.9086 101.421 64.2623C101.092 63.6097 100.896 62.9727 100.834 62.3512C100.778 61.7235 100.849 61.13 101.048 60.5707C101.253 60.0051 101.583 59.4955 102.036 59.0419C102.502 58.5757 103.024 58.2401 103.602 58.0351C104.18 57.83 104.789 57.7554 105.43 57.8113C106.076 57.8735 106.728 58.0786 107.387 58.4266C108.058 58.7746 108.714 59.2687 109.354 59.9088Z" fill="white"/>
</svg>
