<svg width="30" height="29" viewBox="0 0 30 29" fill="none" xmlns="http://www.w3.org/2000/svg">
<path d="M25.7153 3.6391C25.2999 3.5965 24.8483 3.65922 24.3945 3.83262C23.832 4.04649 15.018 7.6306 6.80176 10.9741L4.08691 12.0785C3.03566 12.4906 2.50488 13.1607 2.50488 14.0633C2.50488 14.6953 2.78156 15.5525 4.10156 16.0576L8.68408 17.8323C9.08033 18.9814 10.0007 21.6495 10.2319 22.3588C10.3694 22.7793 10.7167 23.8387 11.5942 24.0864C11.7742 24.1456 11.9621 24.176 12.1533 24.176C12.7071 24.176 13.1058 23.9269 13.3008 23.7819L16.2134 21.4007L19.751 24.5631C19.8872 24.6972 20.6084 25.3749 21.5772 25.3749C22.7859 25.3749 23.7028 24.4022 23.894 23.461C23.9978 22.945 27.4097 6.38847 27.4097 6.39089C27.7159 5.06293 27.1653 4.37405 26.8115 4.08042C26.5084 3.82969 26.1308 3.68169 25.7153 3.6391ZM24.8877 6.24929C24.4164 8.53304 21.8475 20.9986 21.4575 22.7954L16.2866 18.1721L12.7783 21.0443L13.75 17.3697C13.75 17.3697 20.4532 10.8107 20.8569 10.4289C21.1819 10.1232 21.25 10.016 21.25 9.90969C21.25 9.76831 21.1747 9.6666 21.001 9.6666C20.8447 9.6666 20.6325 9.81134 20.52 9.87901C19.0908 10.7403 13.0051 14.0918 10.0098 15.7389L5.66406 14.061L7.77344 13.2043C13.1472 11.0172 22.7177 7.1217 24.8877 6.24929Z" fill="#009486"/>
</svg>
