<svg width="30" height="30" viewBox="0 0 30 30" fill="none" xmlns="http://www.w3.org/2000/svg">
<path d="M12.5 1.22559C7.08 1.22559 2.5 5.54424 2.5 10.6567V15.0293C2.5 19.2618 3.77881 22.0179 6.40381 23.4229V26.2988C6.40381 27.2751 6.98461 28.1503 7.88086 28.5303C8.18586 28.659 8.50693 28.7231 8.82568 28.7231C9.44318 28.7231 10.0502 28.4859 10.5127 28.0371L14.2139 24.4629H18.0493C23.2606 24.4629 27.5 20.2305 27.5 15.0293V10.6567C27.5 5.45549 23.2593 1.22559 18.0493 1.22559H12.5ZM12.5 3.72559H18.0518C21.8843 3.72559 25.0024 6.83424 25.0024 10.6567V15.0293C25.0024 18.853 21.883 21.9629 18.0518 21.9629H13.7109C13.3872 21.9629 13.0755 22.0882 12.8418 22.3145L8.90381 26.1182V22.627C8.90381 22.1157 8.59023 21.656 8.11523 21.4673C5.98898 20.6198 5 18.5743 5 15.0293V10.6567C5 6.96424 8.505 3.72559 12.5 3.72559ZM16.25 4.97559C15.905 4.97559 15.625 5.25559 15.625 5.60059C15.625 5.94559 15.905 6.22559 16.25 6.22559C19.9338 6.22559 22.5 9.51934 22.5 12.4756C22.5 12.8206 22.78 13.1006 23.125 13.1006C23.47 13.1006 23.75 12.8206 23.75 12.4756C23.75 8.92809 20.67 4.97559 16.25 4.97559ZM10.0024 6.23779C9.70463 6.19295 9.38961 6.26365 9.13086 6.4624L8.396 7.02881C7.5285 7.69506 7.2517 8.87119 7.7417 9.84619C8.6642 11.6799 10.2099 14.5055 11.5137 15.708C13.1162 17.188 15.634 18.9422 17.7515 19.8047C18.6777 20.1822 19.7382 19.9165 20.3882 19.1577C20.6194 18.8877 20.8354 18.613 21.0229 18.3643C21.4067 17.8543 21.2951 17.1316 20.7764 16.7578L18.4375 15.0757C17.935 14.7144 17.233 14.814 16.8555 15.3027L16.4624 15.7373C16.2024 16.0248 15.8109 16.1761 15.4297 16.0986C14.8347 15.9786 13.8915 15.5901 12.8027 14.4238C11.904 13.4638 11.3996 12.4422 11.2158 11.731C11.1058 11.306 11.2579 10.8623 11.5967 10.5811L11.9897 10.2539C12.4485 9.87391 12.5386 9.20814 12.1948 8.72314L10.769 6.70898C10.5815 6.44336 10.3003 6.28264 10.0024 6.23779ZM16.25 7.47559C15.905 7.47559 15.625 7.75559 15.625 8.10059C15.625 8.44559 15.905 8.72559 16.25 8.72559C18.1425 8.72559 20 10.5831 20 12.4756C20 12.8206 20.28 13.1006 20.625 13.1006C20.97 13.1006 21.25 12.8206 21.25 12.4756C21.25 9.90559 18.82 7.47559 16.25 7.47559ZM16.25 9.97559C15.905 9.97559 15.625 10.2556 15.625 10.6006C15.625 10.9456 15.905 11.2256 16.25 11.2256C17.0562 11.2256 17.5 11.6693 17.5 12.4756C17.5 12.8206 17.78 13.1006 18.125 13.1006C18.47 13.1006 18.75 12.8206 18.75 12.4756C18.75 10.9806 17.745 9.97559 16.25 9.97559Z" fill="#009486"/>
</svg>
